<svg xmlns="http://www.w3.org/2000/svg" viewBox="0 0 64 64" width="64" height="64">
  <!-- Sun -->
  <circle cx="20" cy="20" r="8" fill="#FFD700" />
  <line x1="20" y1="5" x2="20" y2="12" stroke="#FFD700" stroke-width="2" />
  <line x1="20" y1="28" x2="20" y2="35" stroke="#FFD700" stroke-width="2" />
  <line x1="5" y1="20" x2="12" y2="20" stroke="#FFD700" stroke-width="2" />
  <line x1="28" y1="20" x2="35" y2="20" stroke="#FFD700" stroke-width="2" />
  <line x1="8.5" y1="8.5" x2="13.5" y2="13.5" stroke="#FFD700" stroke-width="2" />
  <line x1="26.5" y1="8.5" x2="21.5" y2="13.5" stroke="#FFD700" stroke-width="2" />
  <line x1="8.5" y1="31.5" x2="13.5" y2="26.5" stroke="#FFD700" stroke-width="2" />
  <line x1="26.5" y1="31.5" x2="21.5" y2="26.5" stroke="#FFD700" stroke-width="2" />

  <!-- Cloud -->
  <path d="M48 38a8 8 0 0 0-7.2 4.9 6 6 0 1 0-6.8 8.2H48a6 6 0 0 0 0-12z" fill="#B0C4DE" />
  <circle cx="38" cy="38" r="6" fill="#B0C4DE" />
  <circle cx="46" cy="35" r="7" fill="#B0C4DE" />
</svg>
